<?xml version="1.0" encoding="UTF-8"?>
<svg version="1.1" xmlns="http://www.w3.org/2000/svg" width="677" height="643">
<path d="M0 0 C1.22847656 0.3403125 2.45695313 0.680625 3.72265625 1.03125 C23.18195619 6.98776787 39.92316221 17.49935366 55 31 C55.73089844 31.64582031 56.46179688 32.29164063 57.21484375 32.95703125 C73.12018 47.88658 83.24546848 68.23573211 89 89 C89.3403125 90.18851562 89.680625 91.37703125 90.03125 92.6015625 C95.94957758 117.7544547 93.90263424 149.99075055 80.93359375 172.625 C77.99950285 178.35768701 77.71473779 184.68594138 77 191 C72.47433202 226.9808563 72.47433202 226.9808563 64 234 C61.3125 234.1875 61.3125 234.1875 59 234 C57.85763439 239.49249386 57.80915031 244.85357087 57.8125 250.4375 C57.81113037 251.41307861 57.80976074 252.38865723 57.80834961 253.39379883 C57.85459965 260.32959252 58.55399234 266.87305439 59.60546875 273.7265625 C60.38178589 280.16768883 60.03535974 285.69035135 57.375 291.625 C55 294 55 294 51.625 295.3125 C47.89497765 294.99094635 47.30129321 294.91999247 44.8125 292.4375 C37.08128038 282.16366002 36.84462679 267.61028954 37 255.3125 C37.02555302 253.2669806 37.04657047 251.22139823 37.0625 249.17578125 C37.07990234 247.82867065 37.07990234 247.82867065 37.09765625 246.4543457 C37.00380716 244.09568344 36.86439494 242.19895899 36 240 C35.01 239.67 34.02 239.34 33 239 C29.94916173 247.22512931 28.73524012 255.36323998 27.5390625 264.02539062 C25.73702893 276.26297107 25.73702893 276.26297107 21 281 C17.875 280.625 17.875 280.625 15 280 C14.88724731 281.0355603 14.88724731 281.0355603 14.7722168 282.09204102 C14.42189589 285.25022507 14.05484551 288.40625274 13.6875 291.5625 C13.56955078 292.64853516 13.45160156 293.73457031 13.33007812 294.85351562 C12.63254553 300.73782906 11.89601226 305.78717793 9 311 C6 313 6 313 3.4375 312.8125 C1 312 1 312 -1 309 C-1.89516513 300.68023001 -0.72012639 292.15259527 0.28808594 283.88867188 C1.11706713 276.90870923 1.77637048 269.88343561 0 263 C-0.58200018 268.46664457 -1.05919057 273.81189968 -0.875 279.3125 C-0.82500686 284.56177977 -2.12810286 287.99439593 -5.75 291.875 C-9.08972194 293.54486097 -11.3120935 293.50867676 -15 293 C-19.80147218 290.2299199 -21.22979265 288.05552364 -22.75 282.75 C-22.95109375 281.87859375 -23.1521875 281.0071875 -23.359375 280.109375 C-23.57078125 279.41328125 -23.7821875 278.7171875 -24 278 C-24.66 277.67 -25.32 277.34 -26 277 C-28.74060723 282.48030698 -29.42983313 286.73657299 -29.40625 292.8203125 C-29.41708618 293.64199921 -29.42792236 294.46368591 -29.43908691 295.31027222 C-29.48466066 298.79745117 -29.49643417 302.28454935 -29.51123047 305.77197266 C-29.52694738 308.33001935 -29.55993888 310.88745125 -29.59375 313.4453125 C-29.59072876 314.22875031 -29.58770752 315.01218811 -29.58459473 315.81936646 C-29.64721715 320.38899488 -30.12888106 323.38917151 -33 327 C-36 329 -36 329 -39.4375 329.125 C-43.20165101 327.93632073 -43.59774246 327.78499993 -45.375 324.5625 C-49.03642061 315.36230617 -48.26587251 304.58911171 -48.51757812 294.83398438 C-48.72762111 288.63177163 -49.45426041 283.01399089 -51 277 C-53.4857581 285.74832697 -53.10219614 294.28817965 -52.80810547 303.29980469 C-52.74755523 305.28795028 -52.71329517 307.27684151 -52.6796875 309.265625 C-52.62917236 311.02567871 -52.62917236 311.02567871 -52.57763672 312.82128906 C-53.08887021 316.66883822 -54.30881138 318.26199181 -57 321 C-60.86539721 322.93269861 -65.16785977 322.56949297 -69.19921875 321.31640625 C-72.70594029 319.75426227 -74.68326434 318.42561354 -77 315.3125 C-80.87044631 302.49164661 -74.23939413 288.16174137 -69.93115234 276.07836914 C-68.60075053 272.25870426 -67.64260289 269.11006676 -68 265 C-68.495 265.165 -68.99 265.33 -69.5 265.5 C-78.05496041 267.21099208 -78.05496041 267.21099208 -82.0390625 264.73046875 C-84.48792886 262.65951387 -86.55601196 260.88797608 -88 258 C-87.85739034 260.50022037 -87.71098536 263.0001271 -87.5625 265.5 C-87.52318359 266.19609375 -87.48386719 266.8921875 -87.44335938 267.609375 C-87.23488001 271.07333976 -86.93851831 274.46226834 -86.48046875 277.90625 C-85.86576027 282.60227647 -85.77867541 287.26855803 -85.75 292 C-85.729375 292.85078125 -85.70875 293.7015625 -85.6875 294.578125 C-85.64954034 300.76554977 -86.1990968 306.79145361 -90.45605469 311.66796875 C-92.63086788 313.54427817 -94.14105227 313.86385963 -97 314 C-101.92552001 312.07784585 -103.93549943 308.63480377 -106 304 C-108.11719261 297.11912402 -107.0674535 290.64954521 -105 283.9375 C-101.38733593 270.81448226 -102.66782498 256.47991801 -103 243 C-103.88365234 243.48146484 -103.88365234 243.48146484 -104.78515625 243.97265625 C-108.06453042 245.4937769 -110.43017963 245.43839899 -114 245 C-118.86605703 241.32342358 -120.49918488 237.55229329 -121.3359375 231.6171875 C-121.59159522 229.4130034 -121.81329518 227.21097818 -122 225 C-123.0725 224.9175 -124.145 224.835 -125.25 224.75 C-129.43711568 223.91257686 -130.34326907 223.1947328 -133 220 C-136.0532474 213.4455384 -136.08844459 206.47412261 -136.15258789 199.39111328 C-136.28364214 187.59989676 -138.02409921 179.86665971 -144.00732422 169.79394531 C-155.81295765 148.45902292 -157.89420482 116.74008158 -151.96875 93.28515625 C-151.6490625 92.20105469 -151.329375 91.11695313 -151 90 C-150.6555267 88.70722376 -150.31181158 87.41424533 -149.96875 86.12109375 C-141.01217845 53.86730693 -118.95258649 27.88194813 -90.1875 11.375 C-63.72560772 -3.40735214 -29.39128068 -8.27359547 0 0 Z M-119.609375 42.40673828 C-141.59019908 67.59052654 -149.46508455 99.18753228 -148 132 C-146.84332713 146.1901969 -142.79773347 160.98281377 -135.36401367 173.14257812 C-129.55638956 182.72773271 -129.23809114 190.61649938 -129.87890625 201.6875 C-130.1398769 207.13144621 -130.251989 213.49926303 -126.42407227 217.75 C-125.95412842 218.1625 -125.48418457 218.575 -125 219 C-122.65712582 216.32752366 -122.65712582 216.32752366 -122 213 C-120.02 213 -118.04 213 -116 213 C-115.98541748 213.57443848 -115.97083496 214.14887695 -115.95581055 214.74072266 C-115.88086275 217.36945696 -115.78436006 219.99698552 -115.6875 222.625 C-115.65366211 223.98044922 -115.65366211 223.98044922 -115.61914062 225.36328125 C-115.40764997 230.63132126 -114.84976326 234.40065018 -112 239 C-109.087425 238.91433603 -107.43201976 238.42089045 -105.33203125 236.375 C-103.83908228 234.61608625 -102.39563738 232.83686981 -101 231 C-100.70996094 232.17755859 -100.70996094 232.17755859 -100.4140625 233.37890625 C-99.03346779 238.9491275 -97.62611553 244.49622437 -96 250 C-95.608125 249.484375 -95.21625 248.96875 -94.8125 248.4375 C-93 247 -93 247 -90.5625 247 C-86.15139627 248.72140633 -84.42722297 252.23394501 -82.1875 256.25 C-80.21176086 259.27887307 -80.21176086 259.27887307 -76.75 259.9375 C-72.67850802 260.0053582 -69.02191986 259.6135132 -65 259 C-64.34 259 -63.68 259 -63 259 C-60.40371096 269.70969229 -64.03960557 278.48583645 -67.6015625 288.52734375 C-67.87403809 289.30940186 -68.14651367 290.09145996 -68.42724609 290.8972168 C-68.96162844 292.42536001 -69.50817601 293.94932292 -70.06884766 295.46801758 C-71.87519202 300.63671805 -72.7169229 305.52020932 -72 311 C-69.81420829 314.49726674 -68.39576352 314.90447088 -64.375 315.875 C-62.704375 315.936875 -62.704375 315.936875 -61 316 C-58.69866817 314.13903141 -58.69866817 314.13903141 -58.82055664 311.19360352 C-58.85012451 310.01725342 -58.87969238 308.84090332 -58.91015625 307.62890625 C-58.93013672 306.33146484 -58.95011719 305.03402344 -58.97070312 303.69726562 C-59.01375284 301.64376991 -59.06175208 299.59057223 -59.11645508 297.53735352 C-59.40100833 286.03046869 -57.90593622 276.86498861 -53.3125 266.3125 C-52.87550781 265.29800781 -52.43851562 264.28351563 -51.98828125 263.23828125 C-51.66214844 262.49964844 -51.33601563 261.76101563 -51 261 C-49.68 261.33 -48.36 261.66 -47 262 C-46.80664062 263.26714844 -46.61328125 264.53429687 -46.4140625 265.83984375 C-46.15119623 267.53908642 -45.88816664 269.23830383 -45.625 270.9375 C-45.49867188 271.76830078 -45.37234375 272.59910156 -45.2421875 273.45507812 C-44.62363151 277.42930038 -43.93755964 281.30878359 -42.9296875 285.203125 C-41.16211416 292.88826327 -41.56489469 300.93599664 -41.43359375 308.77929688 C-41.38912109 310.66165039 -41.38912109 310.66165039 -41.34375 312.58203125 C-41.31571289 314.28709839 -41.31571289 314.28709839 -41.28710938 316.02661133 C-41.01080728 318.8880766 -40.48507405 320.57341568 -39 323 C-35.79573908 320.22863119 -35.4507254 317.95229818 -35.10839844 313.7421875 C-34.84774252 307.14829734 -35.04798276 300.54385513 -35.21484375 293.94921875 C-35.31368143 285.94336695 -34.77134955 279.15702432 -30.25 272.375 C-28 271 -28 271 -24.5 270.75 C-20.70116676 272.10672616 -20.39328128 272.37676961 -18.6875 275.75 C-18.09588996 277.15475915 -17.53106317 278.57125138 -17 280 C-15.5576899 283.86286061 -15.5576899 283.86286061 -13 287 C-10.9519572 286.9049261 -10.9519572 286.9049261 -9 286 C-6.54447763 282.31671645 -6.85246689 279.6715049 -7 275.4375 C-7.26791795 260.40187692 -7.26791795 260.40187692 -3 254 C-0.5625 253.5625 -0.5625 253.5625 2 254 C5.86989077 257.86989077 6.12640163 262.04179676 6.1328125 267.296875 C6.13474609 268.33142822 6.13667969 269.36598145 6.13867188 270.43188477 C6.13416016 271.52686279 6.12964844 272.62184082 6.125 273.75 C6.12306641 274.8649585 6.12113281 275.97991699 6.11914062 277.12866211 C6.07415743 285.78605358 5.72001499 294.37267747 5 303 C7.45884284 299.17225826 7.50153597 295.10181505 7.78125 290.69140625 C7.84026489 289.88767075 7.89927979 289.08393524 7.96008301 288.25584412 C8.14807556 285.69189511 8.32530181 283.127387 8.5 280.5625 C8.73031337 277.18806021 8.97136278 273.81463229 9.21875 270.44140625 C9.26777466 269.67043106 9.31679932 268.89945587 9.36730957 268.1051178 C9.66335621 264.07622314 10.07639444 260.59029714 12 257 C14.125 256.1875 14.125 256.1875 16 256 C16.68759466 259.43797332 17.0356003 262.63262939 16.9375 266.125 C16.99357681 269.60176229 17.12103341 271.18155012 19 274 C20.21496413 269.50409748 21.19004128 265.0736317 21.89453125 260.46875 C22.04599609 259.49292969 22.19746094 258.51710938 22.35351562 257.51171875 C22.65924419 255.50561895 22.95354385 253.49774372 23.23632812 251.48828125 C24.24802026 245.13267176 25.77025187 239.97635978 30 235 C33 233 33 233 36 233.125 C39 234 39 234 40.8125 235.8125 C42.79416272 239.46293133 43.11775906 242.62956188 43.02734375 246.74609375 C43.00655762 248.11640747 43.00655762 248.11640747 42.98535156 249.5144043 C42.96956055 250.47902588 42.95376953 251.44364746 42.9375 252.4375 C42.85052111 265.15816213 44.11068558 276.15646653 49 288 C49.99 288 50.98 288 52 288 C53.50998663 284.98002674 53.13162799 282.16957841 53.125 278.8125 C53.12757813 277.51957031 53.13015625 276.22664063 53.1328125 274.89453125 C53.08399046 271.10943756 53.08399046 271.10943756 52.49780273 267.84619141 C51.92019601 263.38340753 51.87469908 259.0592723 51.90234375 254.56640625 C51.90446617 253.2495005 51.90446617 253.2495005 51.90663147 251.9059906 C51.91219179 249.12479118 51.92473679 246.34367474 51.9375 243.5625 C51.94252013 241.66731888 51.94708214 239.77213648 51.95117188 237.87695312 C51.9621482 233.25127052 51.97938518 228.62564929 52 224 C53.32 223.67 54.64 223.34 56 223 C56.433125 223.825 56.86625 224.65 57.3125 225.5 C57.869375 226.325 58.42625 227.15 59 228 C59.99 228 60.98 228 62 228 C65.30962472 220.61786452 67.18660617 213.38157053 68.625 205.4375 C68.94791016 203.72820312 68.94791016 203.72820312 69.27734375 201.984375 C70.47153384 195.50058216 71.39190887 189.06209648 72 182.5 C72.54395995 176.83224505 73.80014802 172.51603945 76.63671875 167.5625 C89.30337074 143.75354956 89.53356322 111.3182764 82 86 C71.9068935 54.0663217 49.87314712 29.50835275 20.43823242 14.10571289 C-27.06470464 -9.81330043 -84.51809406 3.92924513 -119.609375 42.40673828 Z M-96 258 C-96.03738281 259.17175781 -96.07476562 260.34351563 -96.11328125 261.55078125 C-96.42710509 269.55414205 -96.90726798 276.9233893 -99.29296875 284.62109375 C-101.32746986 291.46645936 -101.66339337 298.26482201 -99 305 C-97.06573804 307.08511327 -97.06573804 307.08511327 -95 308 C-92.13688486 303.19026954 -91.52696913 299.17547801 -91.625 293.6875 C-91.63080078 292.88658936 -91.63660156 292.08567871 -91.64257812 291.26049805 C-91.87047045 280.10748997 -93.47532395 269.03632976 -95 258 C-95.33 258 -95.66 258 -96 258 Z " fill="#555555" transform="translate(366,159)"/>
<path d="M0 0 C13.13072766 9.41210559 21.57947666 21.64858324 24.75390625 37.5625 C26.76857845 51.75595643 23.73920754 66.91716602 15.44140625 78.75 C5.5663861 91.42686118 -7.48927695 100.1196557 -23.58203125 102.53125 C-40.98918527 103.81051591 -55.53117482 98.72442247 -68.74609375 87.5625 C-78.50864199 78.42831044 -85.23626279 65.81245838 -85.796875 52.34375 C-86.19898654 33.9082036 -82.00463129 19.82002492 -69.1640625 6.140625 C-50.14970869 -11.30582858 -21.65855051 -13.90597143 0 0 Z M-68.00390625 13.82421875 C-77.80553186 25.96542837 -80.84351349 39.50333035 -79.55859375 54.75 C-77.46592354 67.70845783 -70.48065408 78.37137556 -60.29296875 86.57421875 C-47.75481522 95.27639874 -35.52578227 96.93612787 -20.55859375 95.75 C-16.54414341 94.92832888 -13.18483871 93.63658773 -9.55859375 91.75 C-8.71167969 91.32589844 -7.86476563 90.90179688 -6.9921875 90.46484375 C5.5136751 83.61048547 13.48171151 73.37279397 17.65234375 59.89453125 C21.06909962 46.27825166 18.72805248 34.1496282 12.44140625 21.75 C10.65622244 18.86017207 8.6776596 16.30254725 6.44140625 13.75 C5.95285156 13.15703125 5.46429688 12.5640625 4.9609375 11.953125 C-2.71406061 3.3874481 -14.15409436 -1.91353164 -25.6015625 -2.5859375 C-41.96460636 -2.94352492 -56.56340194 1.48051674 -68.00390625 13.82421875 Z " fill="#575757" transform="translate(365.55859375,232.25)"/>
<path d="M0 0 C9.85752757 7.44053764 15.80263637 16.72547992 18.6875 28.75 C19.91900628 44.43970988 16.80230954 55.34230815 7.09765625 67.7890625 C0.11977815 75.5346778 -10.8097976 80.16928099 -21.07421875 81.0859375 C-35.46954344 81.22917456 -46.5754443 77.95805428 -57.3125 67.87109375 C-66.50447168 58.06500327 -69.76214049 46.70819707 -69.56640625 33.4765625 C-69.2288035 28.52159285 -68.19395605 24.32739523 -66.3125 19.75 C-66.04566406 19.06679688 -65.77882813 18.38359375 -65.50390625 17.6796875 C-60.5564619 6.4654803 -50.97683756 -1.26491559 -39.75 -5.625 C-26.01639182 -9.78882006 -11.98600551 -7.87651791 0 0 Z M-54.625 12.0625 C-62.37491053 21.21727479 -64.1052543 31.00549178 -63.3125 42.75 C-61.34232494 54.23712237 -54.61698698 62.98588282 -45.3125 69.75 C-35.90359492 74.96711724 -25.91679867 76.387242 -15.30078125 74.1015625 C-3.59938731 70.19553371 4.07365852 63.71258488 9.6875 52.75 C14.09321074 43.82843575 14.17247648 33.24396682 11.0625 23.875 C6.56103904 13.14074695 -1.40586498 4.98862167 -12.13671875 0.4765625 C-28.06133674 -4.84117349 -43.39431197 0.16751989 -54.625 12.0625 Z " fill="#565656" transform="translate(360.3125,242.25)"/>
<path d="M0 0 C1.74340278 3.23774803 2.83847027 6.51541082 4 10 C8.47029433 22.73816881 15.27226555 33.15915194 27.359375 39.86328125 C39.36868893 45.55547869 54.14922585 47.83999149 67.0625 43.375 C71.61681372 41.40691123 75.790445 38.83367892 79.90625 36.07421875 C80.5971875 35.71972656 81.288125 35.36523438 82 35 C83.485 35.495 83.485 35.495 85 36 C85.125 38.625 85.125 38.625 84 42 C74.14398845 50.3950996 60.59416386 53.13088623 48 53 C36.5500066 52.0129316 26.0850726 47.99226124 17 41 C15.8553125 40.12021484 15.8553125 40.12021484 14.6875 39.22265625 C5.87388249 31.94248909 -1.76499572 21.05201997 -3.34375 9.48046875 C-3.56964929 3.65414969 -3.56964929 3.65414969 -1.47265625 1.24609375 C-0.98667969 0.83488281 -0.50070312 0.42367188 0 0 Z " fill="#555555" transform="translate(284,282)"/>
<path d="M0 0 C6.0051349 0.75978364 11.3803776 3.60425138 16.85791016 6.03759766 C18.75330292 6.87646181 20.65555077 7.69819732 22.55859375 8.51953125 C23.75097656 9.04675781 24.94335938 9.57398438 26.171875 10.1171875 C27.8130127 10.83817627 27.8130127 10.83817627 29.48730469 11.57373047 C32 13 32 13 33 16 C31.68 17.32 30.36 18.64 29 20 C26.69 19.01 24.38 18.02 22 17 C21.14025199 19.29294488 21.14025199 19.29294488 21 22 C22.83358335 24.33454661 22.83358335 24.33454661 25 26 C24.01 28.475 24.01 28.475 23 31 C19.38555669 31 19.03678768 30.42995604 16.5234375 28 C15.85634766 27.36328369 15.18925781 26.72656738 14.50195312 26.07055664 C13.80005859 25.38727295 13.09816406 24.70398926 12.375 24 C10.93571152 22.62284492 9.49561222 21.24653673 8.0546875 19.87109375 C7.01199707 18.87118408 7.01199707 18.87118408 5.94824219 17.85107422 C2.38707603 14.4675201 -1.29316403 11.22288794 -5 8 C-1.125 1.125 -1.125 1.125 0 0 Z M6 9 C6.763125 9.763125 7.52625 10.52625 8.3125 11.3125 C9.79181337 12.79181337 11.26192812 14.28133021 12.6875 15.8125 C13.95218271 17.22363777 13.95218271 17.22363777 16 17 C16.33 16.01 16.66 15.02 17 14 C15.54462432 13.16151196 14.08559627 12.32936066 12.625 11.5 C11.81289063 11.0359375 11.00078125 10.571875 10.1640625 10.09375 C8.10663126 8.84964141 8.10663126 8.84964141 6 9 Z " fill="#737373" transform="translate(246,226)"/>
<path d="M0 0 C3.16011792 2.64682026 4.44346137 5.77162946 6.1015625 9.49609375 C6.38349457 10.12604752 6.66542664 10.75600128 6.9559021 11.40504456 C7.54906444 12.73415235 8.13889194 14.06475283 8.72558594 15.39672852 C9.62176427 17.43015812 10.52870689 19.45850973 11.4375 21.48632812 C16.24429263 32.28720169 16.24429263 32.28720169 17 36 C16.45730469 36.19335938 15.91460937 36.38671875 15.35546875 36.5859375 C14.28232422 36.97652344 14.28232422 36.97652344 13.1875 37.375 C12.47980469 37.63023437 11.77210938 37.88546875 11.04296875 38.1484375 C8.75226641 39.0265769 8.75226641 39.0265769 6 41 C3.5078125 40.90625 3.5078125 40.90625 1 40 C-3.37507791 34.91926436 -6.85036957 27.63943864 -8 21 C-7.56879203 18.01975254 -7.18224051 17.18224051 -5 15 C-2.375 14.375 -2.375 14.375 0 14 C-0.28875 13.46890625 -0.5775 12.9378125 -0.875 12.390625 C-1.24625 11.68421875 -1.6175 10.9778125 -2 10.25 C-2.37125 9.55390625 -2.7425 8.8578125 -3.125 8.140625 C-4 6 -4 6 -4 2 C-2.68 1.34 -1.36 0.68 0 0 Z M0 19 C-1.28210284 22.84630851 -0.44814155 23.9891751 1.1875 27.625 C1.61417969 28.60726562 2.04085938 29.58953125 2.48046875 30.6015625 C3.76617237 33.15844358 3.76617237 33.15844358 6.17578125 33.8359375 C7.07876953 33.91714844 7.07876953 33.91714844 8 34 C7.48686537 28.86865375 5.94265013 24.25162208 3 20 C2.01 19.67 1.02 19.34 0 19 Z " fill="#747474" transform="translate(296,184)"/>
<path d="M0 0 C3.93739898 1.53567489 5.85296408 3.971178 8.4375 7.25 C9.21867187 8.23097656 9.99984375 9.21195313 10.8046875 10.22265625 C11.89136719 11.59744141 11.89136719 11.59744141 13 13 C14.01573037 14.23338688 15.03529228 15.46365537 16.0625 16.6875 C16.701875 17.450625 17.34125 18.21375 18 19 C17.1875 20.9375 17.1875 20.9375 16 23 C15.01 23.33 14.02 23.66 13 24 C12.38125 24.845625 11.7625 25.69125 11.125 26.5625 C9 29 9 29 6.6875 29.75 C-1.29392438 27.52262576 -7.09412006 17.15181771 -12 11 C-10.68 9.68 -9.36 8.36 -8 7 C-3.78467868 8.54888551 -1.55064717 11.70302988 1.125 15.125 C2.70583888 17.13907169 4.30885051 19.07315024 6 21 C6.66 21 7.32 21 8 21 C6.55049595 16.64352355 4.32252888 13.68242711 1.375 10.1875 C0.55773437 9.21167969 -0.25953125 8.23585937 -1.1015625 7.23046875 C-1.72804688 6.49441406 -2.35453125 5.75835937 -3 5 C-1.125 1.125 -1.125 1.125 0 0 Z " fill="#747474" transform="translate(276,208)"/>
<path d="M0 0 C2.4375 0.5625 2.4375 0.5625 4 2 C5.55936211 7.56915039 4.60386287 11.62234215 3 17 C-4.625 16.125 -4.625 16.125 -8 15 C-8 16.65 -8 18.3 -8 20 C-5.36 20.99 -2.72 21.98 0 23 C-0.33 24.65 -0.66 26.3 -1 28 C-6.69113347 27.60750804 -10.68792783 27.09646856 -15 23 C-16.40725204 16.38591541 -13.4706893 9.11474944 -11 3 C-8.07983085 -0.929104 -4.54790082 -0.49513436 0 0 Z M-4 5 C-6.2773501 7.81509993 -6.2773501 7.81509993 -6 11 C-4.68 11 -3.36 11 -2 11 C-1.67 9.35 -1.34 7.7 -1 6 C-1.99 5.67 -2.98 5.34 -4 5 Z " fill="#737373" transform="translate(365,193)"/>
<path d="M0 0 C2.73842668 2.45017124 3.81796342 4.549699 5.1875 7.9375 C4.96705896 11.53803691 4.46585208 11.9300867 1.875 14.25 C-0.92765061 16.3955161 -3.59386237 17.96783708 -7 19 C-8.32 16.69 -9.64 14.38 -11 12 C-12.65 12.33 -14.3 12.66 -16 13 C-15.525625 13.9075 -15.05125 14.815 -14.5625 15.75 C-13.35371179 18.26427949 -12.52006114 20.29568209 -12 23 C-13.65 23.33 -15.3 23.66 -17 24 C-19.63966859 20.81354291 -21.72084999 18.03070773 -22.8125 14 C-21.21391905 8.09754725 -15.39364974 4.7502054 -10.4375 1.5625 C-6.53031618 -0.21349265 -4.23508809 -0.7191659 0 0 Z M-7 7 C-6.67 8.32 -6.34 9.64 -6 11 C-4.35 10.34 -2.7 9.68 -1 9 C-1.33 8.01 -1.66 7.02 -2 6 C-4.9254644 5.7763932 -4.9254644 5.7763932 -7 7 Z " fill="#737373" transform="translate(418,232)"/>
<path d="M0 0 C1.98 0 3.96 0 6 0 C7.71036463 5.3591425 8.48263876 10.39525319 9 16 C9.99 11.05 10.98 6.1 12 1 C13.98 1 15.96 1 18 1 C17.56901343 9.96452064 15.30110566 18.37352947 13 27 C10.03 27 7.06 27 4 27 C3.32778525 23.25097253 2.66319433 19.50063279 2 15.75 C1.80921875 14.68652344 1.6184375 13.62304688 1.421875 12.52734375 C1.24140625 11.50253906 1.0609375 10.47773438 0.875 9.421875 C0.70742188 8.47924805 0.53984375 7.53662109 0.3671875 6.56542969 C0 4 0 4 0 0 Z " fill="#747474" transform="translate(328,189)"/>
<path d="M0 0 C3.63336096 0.77305552 5.35773763 1.97153013 7.9375 4.625 C8.75 6.875 8.75 6.875 8.9375 8.625 C6.9575 9.615 6.9575 9.615 4.9375 10.625 C3.9475 9.635 2.9575 8.645 1.9375 7.625 C0.9475 7.955 -0.0425 8.285 -1.0625 8.625 C-0.7325 9.346875 -0.4025 10.06875 -0.0625 10.8125 C1.00135039 13.80457922 1.48490213 15.49698783 0.9375 18.625 C-1.89177844 22.10097065 -4.58991951 24.7304839 -9.0625 25.625 C-12.77414445 23.99549756 -15.32012423 21.57051472 -18.0625 18.625 C-17.4025 17.305 -16.7425 15.985 -16.0625 14.625 C-13.0625 14.625 -13.0625 14.625 -11.5625 16.0625 C-11.0675 16.578125 -10.5725 17.09375 -10.0625 17.625 C-9.0725 17.955 -8.0825 18.285 -7.0625 18.625 C-7.33790704 14.80686553 -7.33790704 14.80686553 -9.0625 11.625 C-9.5 9.4375 -9.5 9.4375 -9.0625 6.625 C-6.61977575 3.02430612 -4.29876474 0.87729893 0 0 Z " fill="#737373" transform="translate(399.0625,213.375)"/>
<path d="M0 0 C3.43522779 0.86054191 4.91964542 2.67705308 6.93359375 5.484375 C8.1245495 9.05724225 8.26604833 10.69017795 6.80859375 14.171875 C4.65915852 16.82284512 3.08782615 18.16399865 -0.06640625 19.484375 C-4.00018341 19.484375 -5.73768849 18.72019426 -8.94140625 16.421875 C-11.33138696 13.11807814 -11.82988412 11.40848857 -11.54296875 7.421875 C-10.07667832 1.46056308 -5.59330451 -0.38064076 0 0 Z M-4.06640625 6.484375 C-4.39640625 8.134375 -4.72640625 9.784375 -5.06640625 11.484375 C-2.59140625 11.979375 -2.59140625 11.979375 -0.06640625 12.484375 C0.26359375 10.834375 0.59359375 9.184375 0.93359375 7.484375 C-0.71640625 7.154375 -2.36640625 6.824375 -4.06640625 6.484375 Z " fill="#535353" transform="translate(337.06640625,269.515625)"/>
<path d="M0 0 C2.475 0.99 2.475 0.99 5 2 C5 2.99 5 3.98 5 5 C6.32 4.67 7.64 4.34 9 4 C9.33 4.99 9.66 5.98 10 7 C8 10 8 10 4.65234375 10.7734375 C0.10600126 12.30023059 -1.28034936 14.59487426 -3.4375 18.625 C-3.78748047 19.23601562 -4.13746094 19.84703125 -4.49804688 20.4765625 C-5.35167777 21.97333996 -6.17863556 23.48527596 -7 25 C-9.4375 24.625 -9.4375 24.625 -12 24 C-12.33 23.34 -12.66 22.68 -13 22 C-12.02783203 19.86108398 -12.02783203 19.86108398 -10.5078125 17.24609375 C-9.69763672 15.84133789 -9.69763672 15.84133789 -8.87109375 14.40820312 C-8.29488281 13.42787109 -7.71867187 12.44753906 -7.125 11.4375 C-6.55652344 10.45330078 -5.98804688 9.46910156 -5.40234375 8.45507812 C-1.18165025 1.18165025 -1.18165025 1.18165025 0 0 Z " fill="#747474" transform="translate(381,201)"/>
<path d="M0 0 C0.67466746 3.22754814 1.33830569 6.45726935 2 9.6875 C2.19078125 10.59951172 2.3815625 11.51152344 2.578125 12.45117188 C2.75859375 13.33740234 2.9390625 14.22363281 3.125 15.13671875 C3.29257812 15.94842529 3.46015625 16.76013184 3.6328125 17.59643555 C4.0153713 20.10061865 4.06298509 22.47075502 4 25 C2.02 25.33 0.04 25.66 -2 26 C-7 6.6 -7 6.6 -7 0 C-4.3333581 -1.33332095 -2.83319697 -0.67102033 0 0 Z " fill="#747474" transform="translate(320,192)"/>
<path d="M0 0 C0.99 0.33 1.98 0.66 3 1 C3.125 3.625 3.125 3.625 2 7 C-5.92478691 13.75013165 -17.61329383 17.85596989 -27.99609375 17.47265625 C-30 17 -30 17 -32.125 14.5 C-32.41375 13.675 -32.7025 12.85 -33 12 C-31.02 12 -29.04 12 -27 12 C-26.67 12.66 -26.34 13.32 -26 14 C-22.71073505 14.50196294 -22.71073505 14.50196294 -19 14 C-17.86643394 12.63305269 -16.74492522 11.25167889 -15.7265625 9.796875 C-12.44940462 6.3862582 -7.94098146 4.53841323 -3.765625 2.41796875 C-1.15653349 1.25873791 -1.15653349 1.25873791 0 0 Z " fill="#3B3B3B" transform="translate(366,317)"/>
<path d="M0 0 C-0.57584432 2.38564077 -1.22227595 4.66682784 -2 7 C-8.62070489 10.31035245 -15.76637505 10.37130774 -23 10 C-22.67 8.35 -22.34 6.7 -22 5 C-20.329375 4.87625 -20.329375 4.87625 -18.625 4.75 C-14.15063657 4.21657945 -10.38932147 2.67101805 -6.296875 0.83984375 C-4 0 -4 0 0 0 Z " fill="#545454" transform="translate(355,313)"/>
<path d="M0 0 C6.76513682 1.7306164 9.98118175 5.55664387 14 11 C7.49200879 10.00481422 2.5332147 8.60861828 -3 5 C-1.125 1.125 -1.125 1.125 0 0 Z " fill="#4C4C4C" transform="translate(310,322)"/>
<path d="M0 0 C2.54226141 -0.08781559 4.49678488 -0.04550362 6.94921875 0.671875 C9.48414972 3.04193241 11.23825726 5.6659505 12.94921875 8.671875 C6.64554072 8.08820111 0.96261812 6.63115881 -5.05078125 4.671875 C-2.65561996 0.87003168 -2.65561996 0.87003168 0 0 Z " fill="#4F4F4F" transform="translate(343.05078125,224.328125)"/>
<path d="M0 0 C3.0547385 5.67308579 4.49882993 11.78086687 6 18 C5.43410156 17.566875 4.86820312 17.13375 4.28515625 16.6875 C3.55167969 16.130625 2.81820313 15.57375 2.0625 15 C1.33160156 14.443125 0.60070312 13.88625 -0.15234375 13.3125 C-1.75814368 11.90348055 -1.75814368 11.90348055 -3 12 C-3.08131463 10.56344146 -3.13933559 9.1255517 -3.1875 7.6875 C-3.22230469 6.88699219 -3.25710938 6.08648437 -3.29296875 5.26171875 C-2.93801608 2.52148416 -2.10633718 1.70828921 0 0 Z " fill="#4C4C4C" transform="translate(284,282)"/>
<path d="M0 0 C3 1 3 1 4.16796875 2.890625 C4.50441406 3.66921875 4.84085937 4.4478125 5.1875 5.25 C5.53167969 6.01828125 5.87585938 6.7865625 6.23046875 7.578125 C7.05826109 10.18335978 7.13967157 12.28362883 7 15 C-0.5273523 10.06345733 -0.5273523 10.06345733 -2.5 5.625 C-2.665 4.75875 -2.83 3.8925 -3 3 C-2.01 2.01 -1.02 1.02 0 0 Z " fill="#4D4D4D" transform="translate(381,251)"/>
<path d="M0 0 C4.68292683 2.8097561 4.68292683 2.8097561 5.5078125 5.90625 C5.63137714 8.11393819 5.56989706 9.86069413 5 12 C2.5 14.5 2.5 14.5 0 16 C-1.03354508 12.89936477 -1.13364996 10.68555932 -1.125 7.4375 C-1.12757813 6.46683594 -1.13015625 5.49617188 -1.1328125 4.49609375 C-1 2 -1 2 0 0 Z " fill="#4C4C4C" transform="translate(404,413)"/>
<path d="M0 0 C0.99 0.33 1.98 0.66 3 1 C2.51058824 6.50588235 2.51058824 6.50588235 0.0625 8.875 C-2 10 -2 10 -4 10 C-3.51171875 3.9453125 -3.51171875 3.9453125 -3 2 C-2.01 1.34 -1.02 0.68 0 0 Z " fill="#393939" transform="translate(366,317)"/>
<path d="M0 0 C0.33 1.98 0.66 3.96 1 6 C-1.31 6.33 -3.62 6.66 -6 7 C-6 5.02 -6 3.04 -6 1 C-3 0 -3 0 0 0 Z " fill="#747474" transform="translate(317,179)"/>
<path d="M0 0 C1.98 0 3.96 0 6 0 C6.33 0.66 6.66 1.32 7 2 C9.64 2 12.28 2 15 2 C15 2.66 15 3.32 15 4 C11.31219923 5.84390038 7.01510347 5.62590336 3 5 C0.875 2.5 0.875 2.5 0 0 Z " fill="#373737" transform="translate(333,329)"/>
<path d="M0 0 C1.65 1.32 3.3 2.64 5 4 C4.60196439 6.88575819 4.20990931 7.82189513 1.9375 9.75 C1.298125 10.1625 0.65875 10.575 0 11 C-0.84098656 6.98195309 -1.05404945 3.98196457 0 0 Z " fill="#494949" transform="translate(307,449)"/>
<path d="M0 0 C3.55830448 0.78109123 4.57607089 2.61964206 6.5625 5.5625 C2.40111737 5.64409574 -1.3847484 5.54498524 -5.4375 4.5625 C-3.84365466 1.8781289 -3.10561474 0.71668033 0 0 Z " fill="#474747" transform="translate(345.4375,156.4375)"/>
<path d="M0 0 C1.98 0 3.96 0 6 0 C5.67 1.65 5.34 3.3 5 5 C3.02 5 1.04 5 -1 5 C-0.67 3.35 -0.34 1.7 0 0 Z " fill="#353535" transform="translate(333,318)"/>
<path d="M0 0 C0.98120464 3.05263664 0.98120464 4.94736336 0 8 C-1.32 8.33 -2.64 8.66 -4 9 C-4 6.69 -4 4.38 -4 2 C-2.68 1.34 -1.36 0.68 0 0 Z " fill="#525252" transform="translate(362,320)"/>
<path d="M0 0 C-0.33 1.32 -0.66 2.64 -1 4 C-2.32 4.33 -3.64 4.66 -5 5 C-5.33 3.68 -5.66 2.36 -6 1 C-4 0 -4 0 0 0 Z " fill="#3C3C3C" transform="translate(355,313)"/>
<path d="M0 0 C1.41377341 2.63904371 2.37240135 5.07120629 3 8 C2.01 8 1.02 8 0 8 C-2 5 -2 5 -1.6875 2.875 C-1 1 -1 1 0 0 Z " fill="#4B4B4B" transform="translate(249,385)"/>
<path d="M0 0 C0.99 0.33 1.98 0.66 3 1 C3 1.66 3 2.32 3 3 C3.66 3 4.32 3 5 3 C5 3.66 5 4.32 5 5 C3.68 5.33 2.36 5.66 1 6 C0.67 4.02 0.34 2.04 0 0 Z " fill="#4A4A4A" transform="translate(233,375)"/>
</svg>
